<svg width="31" height="26" viewBox="0 0 31 26" fill="none" xmlns="http://www.w3.org/2000/svg">
<path d="M27.5312 4.47656H22.8828L21.7754 1.37305C21.6989 1.16068 21.5587 0.977116 21.3739 0.847423C21.1892 0.717731 20.9689 0.648238 20.7432 0.648438H10.2568C9.79541 0.648438 9.38184 0.938965 9.22803 1.37305L8.11719 4.47656H3.46875C1.95801 4.47656 0.734375 5.7002 0.734375 7.21094V22.7969C0.734375 24.3076 1.95801 25.5312 3.46875 25.5312H27.5312C29.042 25.5312 30.2656 24.3076 30.2656 22.7969V7.21094C30.2656 5.7002 29.042 4.47656 27.5312 4.47656ZM27.8047 22.7969C27.8047 22.9473 27.6816 23.0703 27.5312 23.0703H3.46875C3.31836 23.0703 3.19531 22.9473 3.19531 22.7969V7.21094C3.19531 7.06055 3.31836 6.9375 3.46875 6.9375H9.8501L10.4346 5.30371L11.2173 3.10938H19.7793L20.562 5.30371L21.1465 6.9375H27.5312C27.6816 6.9375 27.8047 7.06055 27.8047 7.21094V22.7969ZM15.5 9.125C12.4785 9.125 10.0312 11.5723 10.0312 14.5938C10.0312 17.6152 12.4785 20.0625 15.5 20.0625C18.5215 20.0625 20.9688 17.6152 20.9688 14.5938C20.9688 11.5723 18.5215 9.125 15.5 9.125ZM15.5 17.875C13.6885 17.875 12.2188 16.4053 12.2188 14.5938C12.2188 12.7822 13.6885 11.3125 15.5 11.3125C17.3115 11.3125 18.7812 12.7822 18.7812 14.5938C18.7812 16.4053 17.3115 17.875 15.5 17.875Z" fill="#C6CCD1"/>
</svg>
